<?xml version="1.0" encoding="UTF-8" standalone="no"?>
<svg
   xmlns:dc="http://purl.org/dc/elements/1.1/"
   xmlns:cc="http://creativecommons.org/ns#"
   xmlns:rdf="http://www.w3.org/1999/02/22-rdf-syntax-ns#"
   xmlns:svg="http://www.w3.org/2000/svg"
   xmlns="http://www.w3.org/2000/svg"
   xmlns:xlink="http://www.w3.org/1999/xlink"
   xmlns:sodipodi="http://sodipodi.sourceforge.net/DTD/sodipodi-0.dtd"
   xmlns:inkscape="http://www.inkscape.org/namespaces/inkscape"
   viewBox="0 0 48 48"
   id="svg296"
   version="1.1"
   inkscape:version="0.91 r"
   sodipodi:docname="add-folders-to-archive.svg">
  <metadata
     id="metadata320">
    <rdf:RDF>
      <cc:Work
         rdf:about="">
        <dc:format>image/svg+xml</dc:format>
        <dc:type
           rdf:resource="http://purl.org/dc/dcmitype/StillImage" />
        <dc:title></dc:title>
      </cc:Work>
    </rdf:RDF>
  </metadata>
  <sodipodi:namedview
     pagecolor="#ffffff"
     bordercolor="#666666"
     borderopacity="1"
     objecttolerance="10"
     gridtolerance="10"
     guidetolerance="10"
     inkscape:pageopacity="0"
     inkscape:pageshadow="2"
     inkscape:window-width="1920"
     inkscape:window-height="1056"
     id="namedview318"
     showgrid="true"
     showguides="false"
     inkscape:zoom="2.4583333"
     inkscape:cx="108.39899"
     inkscape:cy="8.0384709"
     inkscape:window-x="0"
     inkscape:window-y="24"
     inkscape:window-maximized="1"
     inkscape:current-layer="svg296">
    <inkscape:grid
       type="xygrid"
       id="grid4181" />
  </sodipodi:namedview>
  <defs
     id="defs298">
    <radialGradient
       id="thisWeirdIdNameFixesABug0"
       cx="24"
       cy="24"
       r="23.437"
       gradientUnits="userSpaceOnUse">
      <stop
         stop-color="#f5c14e"
         id="stop301" />
      <stop
         offset="1"
         stop-color="#d5a12e"
         id="stop303" />
    </radialGradient>
    <radialGradient
       inkscape:collect="always"
       xlink:href="#thisWeirdIdNameFixesABug0"
       id="radialGradient4179"
       cx="24"
       cy="24"
       fx="24"
       fy="24"
       r="18"
       gradientTransform="matrix(1.3333333,8.703703e-8,-8.7037029e-8,1.3333333,-7.9999979,-8.0000021)"
       gradientUnits="userSpaceOnUse" />
  </defs>
  <path
     style="color:#000000;font-style:normal;font-variant:normal;font-weight:normal;font-stretch:normal;font-size:medium;line-height:normal;font-family:sans-serif;text-indent:0;text-align:start;text-decoration:none;text-decoration-line:none;text-decoration-style:solid;text-decoration-color:#000000;letter-spacing:normal;word-spacing:normal;text-transform:none;direction:ltr;block-progression:tb;writing-mode:lr-tb;baseline-shift:baseline;text-anchor:start;white-space:normal;clip-rule:nonzero;display:inline;overflow:visible;visibility:visible;opacity:1;isolation:auto;mix-blend-mode:normal;color-interpolation:sRGB;color-interpolation-filters:linearRGB;solid-color:#000000;solid-opacity:1;fill:url(#radialGradient4179);fill-opacity:1;fill-rule:nonzero;stroke:none;stroke-width:2;stroke-linecap:butt;stroke-linejoin:miter;stroke-miterlimit:4;stroke-dasharray:none;stroke-dashoffset:0;stroke-opacity:1;color-rendering:auto;image-rendering:auto;shape-rendering:auto;text-rendering:auto;enable-background:accumulate"
     d="M 8.90625,10 C 8.5873242,10 8.2664271,10.036047 7.9414062,10.195313 7.6163855,10.354578 7.3351171,10.666223 7.2011719,10.962891 6.9332813,11.556225 7.0019531,12.001 7.0019531,12.5 l -0.052734,2.439453 C 6.41444,15.301541 6,15.815301 6,16.5 L 6,27 c 0,1.090703 0.9092972,2 2,2 l 13,0 0,8 c 0,0.554 0.446,1 1,1 l 19,0 c 0.554,0 1,-0.446 1,-1 l 0,-10.5 c 0,-0.554 -0.446,-1 -1,-1 l -0.05664,0 0.05273,-2.5 c 0.008,-0.5 -0.4875,-1 -0.9375,-1 L 29,22 29,16.5 c 0,-0.72161 -0.461639,-1.2476 -1.046875,-1.599609 L 28,13.021484 l 0,-0.0059 c 0.0094,-0.58583 -0.244772,-1.049881 -0.574219,-1.39449 C 27.096335,11.276525 26.65787,11 26.0625,11 L 13.712891,11 C 13.658151,10.87458 13.7027,10.765844 13.603516,10.638672 13.241183,10.174098 12.619953,10 12.095703,10 l -3.1874999,0 -0.00195,0 z m 0.1113281,2 2.9902339,0 c 0.0058,0.03782 -0.0084,-0.02159 -0.0059,0.04102 L 12.042969,13 25.984375,13 c 0.0123,0.02202 0.01452,0.05307 0.01563,-0.01563 L 26,13 26.0625,13 C 25.951663,13 25.98392,12.9979 26,13.0039 L 25.912109,16.5 27,16.5 27,22 26.998,22 c -0.027,-0.655 -0.168297,-1 -0.904297,-1 l -3.1875,0 -0.002,0 C 22.17034,21.000734 22.025972,21.345698 22,22 c -0.006,0.154 0,0.31 0,0.5 l -0.05469,3.011719 C 21.418473,25.541524 21,25.965443 21,26.5 l 0,0.5 -13,0 0,-10.5 0,-0.002 0.9179688,-0.05859 0.083984,-3.929687 0,-0.0098 c 0,-0.351368 0.010866,-0.410997 0.015625,-0.5 z"
     id="path306"
     inkscape:connector-curvature="0" />
  <path
     style="fill:#ffffff;fill-opacity:0.09673205"
     d="M 8.90625 10 C 8.5873242 10 8.2664271 10.036046 7.9414062 10.195312 C 7.6163855 10.354577 7.3351171 10.666223 7.2011719 10.962891 C 6.9332813 11.556225 7.0019531 12.001 7.0019531 12.5 L 6.9824219 13.380859 L 8.9824219 13.380859 L 9.0019531 12.509766 L 9.0019531 12.5 C 9.0019531 12.148632 9.0128191 12.089003 9.0175781 12 L 12.007812 12 C 12.013613 12.03782 11.999453 11.978406 12.001953 12.041016 L 12.042969 13 L 13.894531 13 L 12.146484 10.003906 C 12.129937 10.003563 12.112072 10 12.095703 10 L 8.9082031 10 L 8.90625 10 z M 15.505859 11 L 14.339844 13 L 24.148438 13 L 22.982422 11 L 15.505859 11 z M 25.759766 11 L 24.59375 13 L 25.984375 13 C 25.996675 13.02202 25.99889 13.053075 26 12.984375 L 26 13 L 26.0625 13 C 25.951663 13 25.98392 12.997906 26 13.003906 L 25.990234 13.380859 L 27.990234 13.380859 L 28 13.021484 L 28 13.015625 C 28.0094 12.429795 27.755228 11.965703 27.425781 11.621094 C 27.096335 11.276525 26.65787 11 26.0625 11 L 25.759766 11 z M 25.923828 16.042969 L 25.912109 16.5 L 26.189453 16.5 L 25.923828 16.042969 z M 6 17.044922 L 6 22.169922 L 8 22.169922 L 8 20.474609 L 6 17.044922 z M 27 17.888672 L 27 22 L 26.998047 22 C 26.971047 21.345 26.82975 21 26.09375 21 L 22.90625 21 L 22.904297 21 C 22.170434 21.000734 22.025972 21.345698 22 22 C 21.997961 22.052336 21.999974 22.115868 22 22.169922 L 29.496094 22.169922 L 29.396484 22 L 29 22 L 29 21.318359 L 27 17.888672 z M 29.496094 22.169922 L 39.75 22.169922 L 39.650391 22 L 29.595703 22 L 29.496094 22.169922 z M 29.496094 22.169922 L 24.371094 30.957031 L 34.625 30.957031 L 29.496094 22.169922 z M 34.625 30.957031 L 42 30.957031 L 42 26.5 C 42 25.946 41.554 25.5 41 25.5 L 40.943359 25.5 L 40.96875 24.259766 L 39.75 22.169922 L 34.625 30.957031 z M 34.625 30.957031 L 30.515625 38 L 38.732422 38 L 34.625 30.957031 z M 39.75 22.169922 L 40.507812 22.169922 C 40.365166 22.072857 40.212584 22 40.058594 22 L 39.849609 22 L 39.75 22.169922 z M 24.371094 30.957031 L 21 36.734375 L 21 37 C 21 37.554 21.446 38 22 38 L 28.478516 38 L 24.371094 30.957031 z M 24.371094 30.957031 L 21.341797 25.769531 C 21.136918 25.949594 21 26.203243 21 26.5 L 21 27 L 16.425781 27 L 15.257812 29 L 21 29 L 21 30.957031 L 24.371094 30.957031 z M 8 23.865234 L 6.0253906 27.25 C 6.1526962 28.224824 6.9948305 29 8 29 L 12.974609 29 L 11.806641 27 L 8 27 L 8 23.865234 z M 42 35.890625 L 40.769531 38 L 41 38 C 41.554 38 42 37.554 42 37 L 42 35.890625 z "
     id="path316" />
  <path
     inkscape:connector-curvature="0"
     style="fill:#859900"
     d="m 25,30 -6,0 0,-6 -6,0 0,6 -6,0 0,6 6,0 0,6 6,0 0,-6 6,0 z"
     id="path14" />
</svg>
