<?xml version="1.0" encoding="UTF-8" standalone="no"?>
<svg
   xmlns:dc="http://purl.org/dc/elements/1.1/"
   xmlns:cc="http://creativecommons.org/ns#"
   xmlns:rdf="http://www.w3.org/1999/02/22-rdf-syntax-ns#"
   xmlns:svg="http://www.w3.org/2000/svg"
   xmlns="http://www.w3.org/2000/svg"
   xmlns:xlink="http://www.w3.org/1999/xlink"
   xmlns:sodipodi="http://sodipodi.sourceforge.net/DTD/sodipodi-0.dtd"
   xmlns:inkscape="http://www.inkscape.org/namespaces/inkscape"
   viewBox="0 0 48 48"
   id="svg2"
   version="1.1"
   inkscape:version="0.91 r"
   sodipodi:docname="folder-projects.svg">
  <metadata
     id="metadata24">
    <rdf:RDF>
      <cc:Work
         rdf:about="">
        <dc:format>image/svg+xml</dc:format>
        <dc:type
           rdf:resource="http://purl.org/dc/dcmitype/StillImage" />
        <dc:title></dc:title>
      </cc:Work>
    </rdf:RDF>
  </metadata>
  <sodipodi:namedview
     pagecolor="#ffffff"
     bordercolor="#666666"
     borderopacity="1"
     objecttolerance="10"
     gridtolerance="10"
     guidetolerance="10"
     inkscape:pageopacity="0"
     inkscape:pageshadow="2"
     inkscape:window-width="1920"
     inkscape:window-height="1056"
     id="namedview22"
     showgrid="true"
     inkscape:zoom="5.6568545"
     inkscape:cx="38.952554"
     inkscape:cy="0.9923327"
     inkscape:window-x="0"
     inkscape:window-y="24"
     inkscape:window-maximized="1"
     inkscape:current-layer="svg2">
    <inkscape:grid
       type="xygrid"
       id="grid4327" />
  </sodipodi:namedview>
  <defs
     id="defs4">
    <radialGradient
       id="thisWeirdIdNameFixesABug0"
       cx="24"
       cy="24"
       r="23.437"
       gradientUnits="userSpaceOnUse">
      <stop
         offset="0"
         stop-color="#f5c14e"
         id="stop7" />
      <stop
         offset="1"
         stop-color="#d5a12e"
         id="stop9"
         style="stop-color:#d5a12e;stop-opacity:1" />
    </radialGradient>
    <radialGradient
       inkscape:collect="always"
       xlink:href="#thisWeirdIdNameFixesABug0"
       id="radialGradient4341"
       cx="24"
       cy="24"
       fx="24"
       fy="24"
       r="21"
       gradientTransform="matrix(1.1428571,9.7278905e-8,-9.7278904e-8,1.1428571,-3.4285691,-3.4285737)"
       gradientUnits="userSpaceOnUse" />
    <linearGradient
       id="linearGradient3855">
      <stop
         id="stop3857"
         offset="0"
         style="stop-color:#000000;stop-opacity:1;" />
      <stop
         id="stop3859"
         offset="1"
         style="stop-color:#000000;stop-opacity:0.29411766;" />
    </linearGradient>
    <linearGradient
       id="linearGradient3833">
      <stop
         style="stop-color:#fdfeff;stop-opacity:1;"
         offset="0"
         id="stop3835" />
      <stop
         style="stop-color:#dfe4e4;stop-opacity:1;"
         offset="1"
         id="stop3837" />
    </linearGradient>
    <linearGradient
       id="linearGradient3823">
      <stop
         id="stop3825"
         offset="0"
         style="stop-color:#49b7ef;stop-opacity:1;" />
      <stop
         id="stop3827"
         offset="1"
         style="stop-color:#1d8de2;stop-opacity:1;" />
    </linearGradient>
    <linearGradient
       id="linearGradient3956">
      <stop
         id="stop3958"
         offset="0"
         style="stop-color:#f8f4e1;stop-opacity:1;" />
      <stop
         id="stop3960"
         offset="1"
         style="stop-color:#eae5c8;stop-opacity:1;" />
    </linearGradient>
    <linearGradient
       id="linearGradient3915">
      <stop
         id="stop3917"
         offset="0"
         style="stop-color:#f8f4e1;stop-opacity:1;" />
      <stop
         id="stop3919"
         offset="1"
         style="stop-color:#ad9e57;stop-opacity:1;" />
    </linearGradient>
    <linearGradient
       id="linearGradient3810">
      <stop
         id="stop3812"
         offset="0"
         style="stop-color:#f2c66f;stop-opacity:1;" />
      <stop
         id="stop3814"
         offset="1"
         style="stop-color:#fbd68f;stop-opacity:1;" />
    </linearGradient>
    <linearGradient
       gradientUnits="userSpaceOnUse"
       y2="1014.3622"
       x2="24"
       y1="1046.3622"
       x1="24"
       id="linearGradient3816"
       xlink:href="#linearGradient3810"
       inkscape:collect="always" />
    <linearGradient
       gradientTransform="translate(0,-3)"
       y2="1014.3622"
       x2="24"
       y1="1046.3622"
       x1="24"
       gradientUnits="userSpaceOnUse"
       id="linearGradient3856"
       xlink:href="#linearGradient3810"
       inkscape:collect="always" />
    <linearGradient
       gradientTransform="translate(0,-1004.3622)"
       y2="1014.3622"
       x2="24"
       y1="1046.3622"
       x1="24"
       gradientUnits="userSpaceOnUse"
       id="linearGradient3858"
       xlink:href="#linearGradient3810"
       inkscape:collect="always" />
    <linearGradient
       gradientUnits="userSpaceOnUse"
       y2="28.5625"
       x2="46.004719"
       y1="28.5625"
       x1="1.9952808"
       id="linearGradient3867"
       xlink:href="#linearGradient3855"
       inkscape:collect="always" />
    <linearGradient
       gradientUnits="userSpaceOnUse"
       y2="5"
       x2="38"
       y1="8"
       x1="35"
       id="linearGradient3921"
       xlink:href="#linearGradient3915"
       inkscape:collect="always" />
    <linearGradient
       gradientTransform="matrix(1.0436562,0,0,1.2222222,26.301501,1003.2511)"
       y2="5"
       x2="38"
       y1="8"
       x1="35"
       gradientUnits="userSpaceOnUse"
       id="linearGradient3933"
       xlink:href="#linearGradient3915"
       inkscape:collect="always" />
    <linearGradient
       gradientTransform="translate(22,1004.3622)"
       gradientUnits="userSpaceOnUse"
       y2="5"
       x2="44"
       y1="11"
       x1="35"
       id="linearGradient3954"
       xlink:href="#linearGradient3915"
       inkscape:collect="always" />
    <linearGradient
       gradientUnits="userSpaceOnUse"
       y2="24"
       x2="20"
       y1="14"
       x1="21"
       id="linearGradient3829"
       xlink:href="#linearGradient3823"
       inkscape:collect="always" />
    <linearGradient
       y2="26"
       x2="20"
       y1="14"
       x1="21"
       gradientUnits="userSpaceOnUse"
       id="linearGradient3839"
       xlink:href="#linearGradient3833"
       inkscape:collect="always" />
    <linearGradient
       gradientUnits="userSpaceOnUse"
       y2="30"
       x2="20"
       y1="15"
       x1="22"
       id="linearGradient3862"
       xlink:href="#linearGradient3855"
       inkscape:collect="always" />
    <clipPath
       id="clipPath-069049578">
      <g
         transform="translate(0,-1004.3622)"
         id="g3352">
        <path
           d="m -24 13 c 0 1.105 -0.672 2 -1.5 2 -0.828 0 -1.5 -0.895 -1.5 -2 0 -1.105 0.672 -2 1.5 -2 0.828 0 1.5 0.895 1.5 2 z"
           transform="matrix(15.333333,0,0,11.5,414.99999,878.8622)"
           fill="#1890d0"
           id="path3354" />
      </g>
    </clipPath>
    <clipPath
       id="clipPath-059275953">
      <g
         transform="translate(0,-1004.3622)"
         id="g3347">
        <path
           d="m -24 13 c 0 1.105 -0.672 2 -1.5 2 -0.828 0 -1.5 -0.895 -1.5 -2 0 -1.105 0.672 -2 1.5 -2 0.828 0 1.5 0.895 1.5 2 z"
           transform="matrix(15.333333,0,0,11.5,414.99999,878.8622)"
           fill="#1890d0"
           id="path3349" />
      </g>
    </clipPath>
    <linearGradient
       id="linearGradient3764"
       x1="1"
       x2="47"
       gradientUnits="userSpaceOnUse"
       gradientTransform="matrix(0,-1,1,0,-1.5e-6,47.999998)">
      <stop
         stop-color="#d6740a"
         stop-opacity="1"
         id="stop3342" />
      <stop
         offset="1"
         stop-color="#e87e0b"
         stop-opacity="1"
         id="stop3344" />
    </linearGradient>
    <clipPath
       id="clipPath-483879499">
      <g
         transform="translate(0,-1004.3622)"
         id="g3401">
        <path
           d="m -24 13 c 0 1.105 -0.672 2 -1.5 2 -0.828 0 -1.5 -0.895 -1.5 -2 0 -1.105 0.672 -2 1.5 -2 0.828 0 1.5 0.895 1.5 2 z"
           transform="matrix(15.333333,0,0,11.5,414.99999,878.8622)"
           fill="#1890d0"
           id="path3403" />
      </g>
    </clipPath>
    <clipPath
       id="clipPath-478329641">
      <g
         transform="translate(0,-1004.3622)"
         id="g3396">
        <path
           d="m -24 13 c 0 1.105 -0.672 2 -1.5 2 -0.828 0 -1.5 -0.895 -1.5 -2 0 -1.105 0.672 -2 1.5 -2 0.828 0 1.5 0.895 1.5 2 z"
           transform="matrix(15.333333,0,0,11.5,414.99999,878.8622)"
           fill="#1890d0"
           id="path3398" />
      </g>
    </clipPath>
    <linearGradient
       id="linearGradient3764-2"
       x1="1"
       x2="47"
       gradientUnits="userSpaceOnUse"
       gradientTransform="matrix(0,-1,1,0,-1.5e-6,47.999998)">
      <stop
         stop-color="#333"
         stop-opacity="1"
         id="stop3391" />
      <stop
         offset="1"
         stop-color="#3d3d3d"
         stop-opacity="1"
         id="stop3393" />
    </linearGradient>
    <clipPath
       id="clipPath-826434300">
      <g
         transform="translate(0,-1004.3622)"
         id="g10603">
        <path
           d="m -24 13 c 0 1.105 -0.672 2 -1.5 2 -0.828 0 -1.5 -0.895 -1.5 -2 0 -1.105 0.672 -2 1.5 -2 0.828 0 1.5 0.895 1.5 2 z"
           transform="matrix(15.333333,0,0,11.5,414.99999,878.8622)"
           fill="#1890d0"
           id="path10605" />
      </g>
    </clipPath>
    <clipPath
       id="clipPath-810928594">
      <g
         transform="translate(0,-1004.3622)"
         id="g10598">
        <path
           d="m -24 13 c 0 1.105 -0.672 2 -1.5 2 -0.828 0 -1.5 -0.895 -1.5 -2 0 -1.105 0.672 -2 1.5 -2 0.828 0 1.5 0.895 1.5 2 z"
           transform="matrix(15.333333,0,0,11.5,414.99999,878.8622)"
           fill="#1890d0"
           id="path10600" />
      </g>
    </clipPath>
    <linearGradient
       id="linearGradient3764-0"
       x1="1"
       x2="47"
       gradientUnits="userSpaceOnUse"
       gradientTransform="matrix(0,-1,1,0,-1.5e-6,47.999998)">
      <stop
         stop-color="#3a3a3a"
         stop-opacity="1"
         id="stop10593" />
      <stop
         offset="1"
         stop-color="#444"
         stop-opacity="1"
         id="stop10595" />
    </linearGradient>
  </defs>
  <path
     style="color:#000000;font-style:normal;font-variant:normal;font-weight:normal;font-stretch:normal;font-size:medium;line-height:normal;font-family:sans-serif;text-indent:0;text-align:start;text-decoration:none;text-decoration-line:none;text-decoration-style:solid;text-decoration-color:#000000;letter-spacing:normal;word-spacing:normal;text-transform:none;direction:ltr;block-progression:tb;writing-mode:lr-tb;baseline-shift:baseline;text-anchor:start;white-space:normal;clip-rule:nonzero;display:inline;overflow:visible;visibility:visible;opacity:1;isolation:auto;mix-blend-mode:normal;color-interpolation:sRGB;color-interpolation-filters:linearRGB;solid-color:#000000;solid-opacity:1;fill:url(#radialGradient4341);fill-opacity:1;fill-rule:nonzero;stroke:none;stroke-width:2;stroke-linecap:butt;stroke-linejoin:miter;stroke-miterlimit:4;stroke-dasharray:none;stroke-dashoffset:0;stroke-opacity:1;color-rendering:auto;image-rendering:auto;shape-rendering:auto;text-rendering:auto;enable-background:accumulate"
     d="M 6.5175781 7 C 5.6255551 7 4.7828951 7.2652919 4.2988281 7.9042969 C 4.0406961 8.2450519 3.999695 8.6232495 4 9 C 4.0033 9.6629806 4.0019531 10.33409 4.0019531 11 L 4.0019531 16 C 4.0019531 16.08869 4.0198038 16.172722 4.0273438 16.259766 C 3.4164286 16.601298 3 17.247641 3 18 L 3 39 C 3 40.108 3.892 41 5 41 L 43 41 C 44.108 41 45 40.108 45 39 L 45 18 C 45 17.250155 44.586056 16.606134 43.978516 16.263672 C 43.986316 16.175382 44.003906 16.089974 44.003906 16 L 44.003906 12 C 44.003906 11.163333 43.616788 10.455792 43.103516 9.9277344 C 42.590243 9.3996754 41.91768 9 41.097656 9 L 15.714844 9 C 15.641614 8.631062 15.674144 8.2450519 15.416016 7.9042969 C 14.931949 7.2652919 14.087336 7 13.195312 7 L 6.5175781 7 z M 6.8125 9 L 6.8203125 9 L 13.195312 9 C 13.775289 9 13.797082 9.0780801 13.822266 9.1113281 C 13.847446 9.1445781 13.954355 9.4433816 13.978516 10.041016 L 14.017578 11 L 41.097656 11 C 41.173636 11 41.452242 11.100324 41.667969 11.322266 C 41.883696 11.544207 42.003906 11.836667 42.003906 12 L 42.003906 16 L 6.0019531 16 L 6.0019531 11 L 6.0019531 10.759766 L 6.03125 10.041016 C 6.05541 9.4433816 6.162317 9.1445721 6.1875 9.1113281 C 6.21268 9.0780881 6.23252 9 6.8125 9 z M 17.078125 20.40625 C 17.628335 20.39765 18.190913 20.451 18.734375 20.5 C 21.38074 20.7998 24.002655 21.8295 25.953125 23.6875 C 26.557107 23.5736 27.184323 23.44175 27.796875 23.34375 C 28.70014 23.22445 29.617447 23.6127 30.203125 24.3125 C 30.92857 25.2103 31.645809 26.0958 32.359375 27 C 32.723069 27.4725 32.471272 28.22785 31.890625 28.34375 C 30.909564 28.52125 29.900796 28.66895 28.921875 28.84375 C 28.98085 29.64575 28.809444 30.4803 28.328125 31.125 C 27.788084 31.8807 26.868166 32.3237 25.953125 32.4375 C 25.925995 33.1286 26.012225 33.83105 26.015625 34.53125 C 26.010945 34.86345 26.072765 35.20555 25.984375 35.53125 C 25.839103 36.02645 25.197206 36.3076 24.734375 36.0625 C 23.728956 35.5441 22.732732 35.05685 21.734375 34.53125 C 20.893183 34.08205 20.319195 33.17175 20.296875 32.21875 C 20.295775 31.67385 20.285955 31.1061 20.296875 30.5625 C 20.324761 30.4328 20.216655 30.41575 20.140625 30.34375 C 18.066427 28.78195 16.652434 26.4533 15.890625 24 C 15.591132 22.9304 15.319759 21.77235 15.484375 20.65625 C 16.007944 20.47425 16.527915 20.41625 17.078125 20.40625 z M 20.390625 22.4375 C 19.751297 22.4959 19.114812 22.81175 18.671875 23.34375 C 17.786003 24.40765 17.951725 25.9891 19.015625 26.875 C 20.079526 27.7609 21.661002 27.59515 22.546875 26.53125 C 23.432748 25.46735 23.267025 23.8859 22.203125 23 C 21.671175 22.5571 21.029953 22.3795 20.390625 22.4375 z M 20.453125 23.28125 C 20.879196 23.24225 21.31692 23.36065 21.671875 23.65625 C 22.381784 24.24745 22.481742 25.2901 21.890625 26 C 21.299508 26.71 20.256784 26.80985 19.546875 26.21875 C 18.836966 25.62755 18.737008 24.5849 19.328125 23.875 C 19.623683 23.52 20.027054 23.32025 20.453125 23.28125 z M 30.609375 30.09375 C 30.682341 30.10075 30.765645 30.1385 30.828125 30.1875 C 31.362215 30.6278 31.894634 31.0567 32.421875 31.5 C 32.68699 31.7121 32.559751 32.186 32.234375 32.25 C 31.9715 32.29 31.717394 32.31275 31.453125 32.34375 C 31.715292 32.95265 31.979057 33.54435 32.234375 34.15625 C 32.358228 34.44645 32.069965 34.813 31.765625 34.75 C 31.119795 34.6071 30.480804 34.42115 29.828125 34.28125 C 29.852095 34.54385 29.882425 34.82795 29.890625 35.09375 C 29.886325 35.42745 29.553001 35.6552 29.296875 35.4375 C 28.770495 35.0036 28.164865 34.499 27.640625 34.0625 C 27.385146 33.8585 27.454605 33.44175 27.765625 33.34375 C 28.960101 32.83815 29.861644 31.73665 30.140625 30.46875 C 30.172245 30.23965 30.390478 30.07375 30.609375 30.09375 z "
     id="path12" />
  <g
     transform="translate(-17.867137,10.83326)"
     id="g3417" />
  <path
     style="color:#000000;font-style:normal;font-variant:normal;font-weight:normal;font-stretch:normal;font-size:medium;line-height:normal;font-family:sans-serif;text-indent:0;text-align:start;text-decoration:none;text-decoration-line:none;text-decoration-style:solid;text-decoration-color:#000000;letter-spacing:normal;word-spacing:normal;text-transform:none;direction:ltr;block-progression:tb;writing-mode:lr-tb;baseline-shift:baseline;text-anchor:start;white-space:normal;clip-rule:nonzero;display:inline;overflow:visible;visibility:visible;opacity:1;isolation:auto;mix-blend-mode:normal;color-interpolation:sRGB;color-interpolation-filters:linearRGB;solid-color:#000000;solid-opacity:1;fill:#ffffff;fill-opacity:0.09673204;fill-rule:nonzero;stroke:none;stroke-width:2;stroke-linecap:butt;stroke-linejoin:miter;stroke-miterlimit:4;stroke-dasharray:none;stroke-dashoffset:0;stroke-opacity:1;color-rendering:auto;image-rendering:auto;shape-rendering:auto;text-rendering:auto;enable-background:accumulate"
     d="M 6.5175781 7 C 5.6255551 7 4.7828951 7.2652919 4.2988281 7.9042969 C 4.0406961 8.2450519 3.999695 8.62325 4 9 C 4.0033 9.662981 4.0019531 10.33409 4.0019531 11 L 4.0019531 13.136719 L 6.0859375 9.5605469 C 6.1260326 9.3095345 6.1712675 9.1327566 6.1875 9.1113281 C 6.2025877 9.0914109 6.2616255 9.06083 6.3945312 9.0351562 L 7.5800781 7 L 6.5175781 7 z M 10.390625 7 L 11.556641 9 L 13.195312 9 C 13.77529 9 13.797082 9.0780801 13.822266 9.1113281 C 13.847446 9.1445781 13.954355 9.4433812 13.978516 10.041016 L 14.017578 11 L 15.501953 11 L 16.667969 9 L 15.714844 9 C 15.641614 8.631062 15.674144 8.2450519 15.416016 7.9042969 C 14.931949 7.2652919 14.087336 7 13.195312 7 L 10.390625 7 z M 21.810547 9 L 22.978516 11 L 25.755859 11 L 26.921875 9 L 21.810547 9 z M 32.064453 9 L 33.232422 11 L 36.009766 11 L 37.175781 9 L 32.064453 9 z M 42.619141 9.5175781 L 43.988281 11.863281 C 43.947582 11.08815 43.587622 10.425787 43.103516 9.9277344 C 42.956275 9.7762521 42.792319 9.6415261 42.619141 9.5175781 z M 4.0019531 13.380859 L 4.0019531 13.625 L 8.984375 22.169922 L 12.583984 16 L 6.0019531 16 L 6.0019531 13.380859 L 4.0019531 13.380859 z M 8.984375 22.169922 L 14.113281 30.957031 L 16.832031 26.294922 C 16.453753 25.555554 16.134722 24.786082 15.890625 24 C 15.725318 23.409626 15.577634 22.792248 15.498047 22.169922 L 8.984375 22.169922 z M 8.984375 22.169922 L 3 22.169922 L 3 29.484375 L 3.859375 30.957031 L 8.984375 22.169922 z M 3.859375 30.957031 L 8.984375 39.746094 L 14.113281 30.957031 L 3.859375 30.957031 z M 3.859375 30.957031 L 3 30.957031 L 3 32.429688 L 3.859375 30.957031 z M 14.113281 30.957031 L 19.238281 39.746094 L 22.15625 34.746094 C 22.015975 34.67354 21.874703 34.605128 21.734375 34.53125 C 20.893183 34.08205 20.319195 33.17175 20.296875 32.21875 C 20.296037 31.803649 20.29481 31.377889 20.296875 30.957031 L 14.113281 30.957031 z M 19.238281 39.746094 L 19.970703 41 L 28.761719 41 L 29.492188 39.746094 L 19.238281 39.746094 z M 19.238281 39.746094 L 8.984375 39.746094 L 9.7167969 41 L 18.507812 41 L 19.238281 39.746094 z M 8.984375 39.746094 L 3.1464844 39.746094 C 3.441552 40.481366 4.1567823 41 5 41 L 8.2539062 41 L 8.984375 39.746094 z M 29.492188 39.746094 L 34.621094 30.957031 L 31.761719 30.957031 C 31.981524 31.137453 32.203595 31.316472 32.421875 31.5 C 32.68699 31.7121 32.559751 32.186 32.234375 32.25 C 31.9715 32.29 31.717394 32.31275 31.453125 32.34375 C 31.715292 32.95265 31.979057 33.54435 32.234375 34.15625 C 32.358228 34.44645 32.069965 34.813 31.765625 34.75 C 31.119795 34.6071 30.480804 34.42115 29.828125 34.28125 C 29.852095 34.54385 29.882425 34.82795 29.890625 35.09375 C 29.886325 35.42745 29.553001 35.6552 29.296875 35.4375 C 28.770495 35.0036 28.164865 34.499 27.640625 34.0625 C 27.385146 33.8585 27.454605 33.44175 27.765625 33.34375 C 28.803502 32.904436 29.618726 32.014381 29.998047 30.957031 L 28.427734 30.957031 C 28.392575 31.011986 28.36736 31.072447 28.328125 31.125 C 27.788084 31.8807 26.868166 32.3237 25.953125 32.4375 C 25.936358 32.864615 25.958904 33.295926 25.982422 33.728516 L 29.492188 39.746094 z M 29.492188 39.746094 L 30.224609 41 L 39.015625 41 L 39.746094 39.746094 L 29.492188 39.746094 z M 39.746094 39.746094 L 44.873047 30.957031 L 34.621094 30.957031 L 39.746094 39.746094 z M 39.746094 39.746094 L 40.478516 41 L 43 41 C 43.843218 41 44.558448 40.481366 44.853516 39.746094 L 39.746094 39.746094 z M 34.621094 30.957031 L 39.746094 22.169922 L 29.492188 22.169922 L 32.183594 26.78125 C 32.241761 26.854661 32.301259 26.926358 32.359375 27 C 32.436785 27.100569 32.481452 27.214724 32.505859 27.332031 L 34.621094 30.957031 z M 29.492188 22.169922 L 23.900391 22.169922 C 24.637088 22.596873 25.331787 23.095619 25.953125 23.6875 C 26.557107 23.5736 27.184323 23.44175 27.796875 23.34375 C 28.122983 23.300679 28.446263 23.343818 28.759766 23.423828 L 29.492188 22.169922 z M 29.492188 22.169922 L 33.091797 16 L 25.894531 16 L 29.492188 22.169922 z M 39.746094 22.169922 L 44.003906 14.867188 L 44.003906 13.380859 L 42.003906 13.380859 L 42.003906 16 L 36.148438 16 L 39.746094 22.169922 z M 39.746094 22.169922 L 44.875 30.957031 L 45 30.742188 L 45 22.169922 L 39.746094 22.169922 z M 44.875 30.957031 L 44.873047 30.957031 L 45 31.173828 L 45 30.957031 L 44.875 30.957031 z M 15.640625 16 L 18.240234 20.458984 C 18.40534 20.472674 18.571847 20.485346 18.734375 20.5 C 19.185695 20.551129 19.635343 20.630534 20.082031 20.724609 L 22.837891 16 L 15.640625 16 z M 20.390625 22.4375 C 20.098855 22.464152 19.809569 22.551663 19.537109 22.681641 L 19.962891 23.410156 C 20.119895 23.344076 20.283566 23.29677 20.453125 23.28125 C 20.879196 23.24225 21.31692 23.36065 21.671875 23.65625 C 22.381784 24.24745 22.481742 25.2901 21.890625 26 C 21.809407 26.097552 21.719281 26.181552 21.623047 26.255859 L 22.044922 26.980469 C 22.226622 26.853392 22.398502 26.709441 22.546875 26.53125 C 23.432748 25.46735 23.267025 23.8859 22.203125 23 C 21.671175 22.5571 21.029953 22.3795 20.390625 22.4375 z "
     id="path12-3" />
</svg>
