<?xml version="1.0" encoding="UTF-8" standalone="no"?>
<svg
   xmlns:dc="http://purl.org/dc/elements/1.1/"
   xmlns:cc="http://creativecommons.org/ns#"
   xmlns:rdf="http://www.w3.org/1999/02/22-rdf-syntax-ns#"
   xmlns:svg="http://www.w3.org/2000/svg"
   xmlns="http://www.w3.org/2000/svg"
   xmlns:xlink="http://www.w3.org/1999/xlink"
   xmlns:sodipodi="http://sodipodi.sourceforge.net/DTD/sodipodi-0.dtd"
   xmlns:inkscape="http://www.inkscape.org/namespaces/inkscape"
   viewBox="0 0 48 48"
   id="svg119"
   version="1.1"
   inkscape:version="0.91 r"
   sodipodi:docname="folder-copy.svg">
  <metadata
     id="metadata143">
    <rdf:RDF>
      <cc:Work
         rdf:about="">
        <dc:format>image/svg+xml</dc:format>
        <dc:type
           rdf:resource="http://purl.org/dc/dcmitype/StillImage" />
      </cc:Work>
    </rdf:RDF>
  </metadata>
  <sodipodi:namedview
     pagecolor="#ffffff"
     bordercolor="#666666"
     borderopacity="1"
     objecttolerance="10"
     gridtolerance="10"
     guidetolerance="10"
     inkscape:pageopacity="0"
     inkscape:pageshadow="2"
     inkscape:window-width="1920"
     inkscape:window-height="1056"
     id="namedview141"
     showgrid="true"
     inkscape:zoom="13.906433"
     inkscape:cx="19.787446"
     inkscape:cy="24.579374"
     inkscape:window-x="0"
     inkscape:window-y="24"
     inkscape:window-maximized="1"
     inkscape:current-layer="svg119">
    <inkscape:grid
       type="xygrid"
       id="grid4156" />
  </sodipodi:namedview>
  <defs
     id="defs121">
    <radialGradient
       id="thisWeirdIdNameFixesABug0"
       cx="24"
       cy="24"
       r="23.437"
       gradientUnits="userSpaceOnUse">
      <stop
         stop-color="#f5c14e"
         id="stop124" />
      <stop
         offset="1"
         stop-color="#d5a12e"
         id="stop126" />
    </radialGradient>
    <radialGradient
       inkscape:collect="always"
       xlink:href="#thisWeirdIdNameFixesABug0"
       id="radialGradient4171"
       cx="24"
       cy="24"
       fx="24"
       fy="24"
       r="18"
       gradientTransform="matrix(1.3333333,8.7037037e-8,-8.7037036e-8,1.3333333,-7.9999979,-8.0000021)"
       gradientUnits="userSpaceOnUse" />
  </defs>
  <g
     mask="none"
     id="g135"
     transform="translate(8,0)" />
  <path
     style="color:#000000;font-style:normal;font-variant:normal;font-weight:normal;font-stretch:normal;font-size:medium;line-height:normal;font-family:sans-serif;text-indent:0;text-align:start;text-decoration:none;text-decoration-line:none;text-decoration-style:solid;text-decoration-color:#000000;letter-spacing:normal;word-spacing:normal;text-transform:none;direction:ltr;block-progression:tb;writing-mode:lr-tb;baseline-shift:baseline;text-anchor:start;white-space:normal;clip-rule:nonzero;display:inline;overflow:visible;visibility:visible;opacity:1;isolation:auto;mix-blend-mode:normal;color-interpolation:sRGB;color-interpolation-filters:linearRGB;solid-color:#000000;solid-opacity:1;fill:url(#radialGradient4171);fill-opacity:1;fill-rule:nonzero;stroke:none;stroke-width:2;stroke-linecap:butt;stroke-linejoin:miter;stroke-miterlimit:4;stroke-dasharray:none;stroke-dashoffset:0;stroke-opacity:1;color-rendering:auto;image-rendering:auto;shape-rendering:auto;text-rendering:auto;enable-background:accumulate"
     d="M 8.90625,10 C 8.587324,10 8.266427,10.03605 7.941406,10.195313 7.616386,10.354578 7.335117,10.666223 7.201172,10.962891 6.933281,11.556225 7.001953,12.001 7.001953,12.5 l -0.05273,2.439453 C 6.41444,15.301541 6,15.815301 6,16.5 L 6,27 c 0,1.090703 0.909297,2 2,2 l 13,0 0,8 c 0,0.554 0.446,1 1,1 l 19,0 c 0.554,0 1,-0.446 1,-1 l 0,-10.5 c 0,-0.554 -0.446,-1 -1,-1 l -0.05664,0 0.05273,-2.5 c 0.008,-0.5 -0.4875,-1 -0.9375,-1 L 29,22 29,16.5 c 0,-0.72161 -0.461639,-1.2476 -1.046875,-1.599609 L 28,13.021484 l 0,-0.0059 c 0.0094,-0.58583 -0.244772,-1.049881 -0.574219,-1.39449 C 27.096335,11.276525 26.65787,11 26.0625,11 L 13.712891,11 C 13.658151,10.87458 13.7027,10.765844 13.603516,10.638672 13.241183,10.174098 12.619953,10 12.095703,10 l -3.1875,0 -0.002,0 z"
     id="path306"
     inkscape:connector-curvature="0"
     sodipodi:nodetypes="cssccssscssssssccscsccccscssccc" />
  <path
     style="fill:#ffffff;fill-opacity:0.09673205"
     d="M 8.90625 10 C 8.587324 10 8.2664272 10.036049 7.9414062 10.195312 C 7.6163863 10.354577 7.3351169 10.666223 7.2011719 10.962891 C 6.9332809 11.556225 7.0019531 12.001 7.0019531 12.5 L 6.9824219 13.380859 L 14.113281 13.380859 L 12.142578 10.003906 C 12.127307 10.003614 12.110822 10 12.095703 10 L 8.9082031 10 L 8.90625 10 z M 14.113281 13.380859 L 24.367188 13.380859 L 22.978516 11 L 15.501953 11 L 14.113281 13.380859 z M 14.113281 13.380859 L 8.984375 22.169922 L 19.238281 22.169922 L 14.113281 13.380859 z M 19.238281 22.169922 L 29.492188 22.169922 L 29.392578 22 L 29 22 L 29 21.326172 L 24.367188 13.380859 L 19.238281 22.169922 z M 19.238281 22.169922 L 15.253906 29 L 21 29 L 21 30.957031 L 24.367188 30.957031 L 19.238281 22.169922 z M 24.367188 30.957031 L 34.621094 30.957031 L 29.492188 22.169922 L 24.367188 30.957031 z M 24.367188 30.957031 L 21 36.726562 L 21 37 C 21 37.554 21.446 38 22 38 L 28.474609 38 L 24.367188 30.957031 z M 29.492188 22.169922 L 39.746094 22.169922 L 39.646484 22 L 29.591797 22 L 29.492188 22.169922 z M 39.746094 22.169922 L 40.507812 22.169922 C 40.365166 22.072857 40.212584 22 40.058594 22 L 39.845703 22 L 39.746094 22.169922 z M 39.746094 22.169922 L 34.621094 30.957031 L 42 30.957031 L 42 26.5 C 42 25.946 41.554 25.5 41 25.5 L 40.943359 25.5 L 40.96875 24.265625 L 39.746094 22.169922 z M 34.621094 30.957031 L 30.511719 38 L 38.728516 38 L 34.621094 30.957031 z M 24.367188 13.380859 L 27.990234 13.380859 L 28 13.021484 L 28 13.015625 C 28.0094 12.429795 27.755228 11.965703 27.425781 11.621094 C 27.096335 11.276525 26.65787 11 26.0625 11 L 25.755859 11 L 24.367188 13.380859 z M 8.984375 22.169922 L 6.0253906 27.244141 C 6.1500824 28.221687 6.9928464 29 8 29 L 12.970703 29 L 8.984375 22.169922 z M 8.984375 22.169922 L 6 17.052734 L 6 22.169922 L 8.984375 22.169922 z M 42 35.882812 L 40.765625 38 L 41 38 C 41.554 38 42 37.554 42 37 L 42 35.882812 z "
     id="path316" />
</svg>
