<?xml version="1.0" encoding="UTF-8" standalone="no"?>
<svg
   xmlns:dc="http://purl.org/dc/elements/1.1/"
   xmlns:cc="http://creativecommons.org/ns#"
   xmlns:rdf="http://www.w3.org/1999/02/22-rdf-syntax-ns#"
   xmlns:svg="http://www.w3.org/2000/svg"
   xmlns="http://www.w3.org/2000/svg"
   xmlns:xlink="http://www.w3.org/1999/xlink"
   xmlns:sodipodi="http://sodipodi.sourceforge.net/DTD/sodipodi-0.dtd"
   xmlns:inkscape="http://www.inkscape.org/namespaces/inkscape"
   viewBox="0 0 48 48"
   id="svg2"
   version="1.1"
   inkscape:version="0.91 r"
   sodipodi:docname="folder-publicshare.svg">
  <metadata
     id="metadata24">
    <rdf:RDF>
      <cc:Work
         rdf:about="">
        <dc:format>image/svg+xml</dc:format>
        <dc:type
           rdf:resource="http://purl.org/dc/dcmitype/StillImage" />
        <dc:title></dc:title>
      </cc:Work>
    </rdf:RDF>
  </metadata>
  <sodipodi:namedview
     pagecolor="#ffffff"
     bordercolor="#666666"
     borderopacity="1"
     objecttolerance="10"
     gridtolerance="10"
     guidetolerance="10"
     inkscape:pageopacity="0"
     inkscape:pageshadow="2"
     inkscape:window-width="1920"
     inkscape:window-height="1056"
     id="namedview22"
     showgrid="true"
     inkscape:zoom="4.0000002"
     inkscape:cx="54.281198"
     inkscape:cy="31.724844"
     inkscape:window-x="0"
     inkscape:window-y="24"
     inkscape:window-maximized="1"
     inkscape:current-layer="svg2">
    <inkscape:grid
       type="xygrid"
       id="grid4327" />
  </sodipodi:namedview>
  <defs
     id="defs4">
    <radialGradient
       id="thisWeirdIdNameFixesABug0"
       cx="24"
       cy="24"
       r="23.437"
       gradientUnits="userSpaceOnUse">
      <stop
         offset="0"
         stop-color="#f5c14e"
         id="stop7" />
      <stop
         offset="1"
         stop-color="#d5a12e"
         id="stop9"
         style="stop-color:#d5a12e;stop-opacity:1" />
    </radialGradient>
    <radialGradient
       inkscape:collect="always"
       xlink:href="#thisWeirdIdNameFixesABug0"
       id="radialGradient4341"
       cx="24"
       cy="24"
       fx="24"
       fy="24"
       r="21"
       gradientTransform="matrix(1.1428571,9.7278905e-8,-9.7278904e-8,1.1428571,-3.4285691,-3.4285737)"
       gradientUnits="userSpaceOnUse" />
    <linearGradient
       id="linearGradient3855">
      <stop
         id="stop3857"
         offset="0"
         style="stop-color:#000000;stop-opacity:1;" />
      <stop
         id="stop3859"
         offset="1"
         style="stop-color:#000000;stop-opacity:0.29411766;" />
    </linearGradient>
    <linearGradient
       id="linearGradient3833">
      <stop
         style="stop-color:#fdfeff;stop-opacity:1;"
         offset="0"
         id="stop3835" />
      <stop
         style="stop-color:#dfe4e4;stop-opacity:1;"
         offset="1"
         id="stop3837" />
    </linearGradient>
    <linearGradient
       id="linearGradient3823">
      <stop
         id="stop3825"
         offset="0"
         style="stop-color:#49b7ef;stop-opacity:1;" />
      <stop
         id="stop3827"
         offset="1"
         style="stop-color:#1d8de2;stop-opacity:1;" />
    </linearGradient>
    <linearGradient
       id="linearGradient3956">
      <stop
         id="stop3958"
         offset="0"
         style="stop-color:#f8f4e1;stop-opacity:1;" />
      <stop
         id="stop3960"
         offset="1"
         style="stop-color:#eae5c8;stop-opacity:1;" />
    </linearGradient>
    <linearGradient
       id="linearGradient3915">
      <stop
         id="stop3917"
         offset="0"
         style="stop-color:#f8f4e1;stop-opacity:1;" />
      <stop
         id="stop3919"
         offset="1"
         style="stop-color:#ad9e57;stop-opacity:1;" />
    </linearGradient>
    <linearGradient
       id="linearGradient3810">
      <stop
         id="stop3812"
         offset="0"
         style="stop-color:#f2c66f;stop-opacity:1;" />
      <stop
         id="stop3814"
         offset="1"
         style="stop-color:#fbd68f;stop-opacity:1;" />
    </linearGradient>
    <linearGradient
       gradientUnits="userSpaceOnUse"
       y2="1014.3622"
       x2="24"
       y1="1046.3622"
       x1="24"
       id="linearGradient3816"
       xlink:href="#linearGradient3810"
       inkscape:collect="always" />
    <linearGradient
       gradientTransform="translate(0,-3)"
       y2="1014.3622"
       x2="24"
       y1="1046.3622"
       x1="24"
       gradientUnits="userSpaceOnUse"
       id="linearGradient3856"
       xlink:href="#linearGradient3810"
       inkscape:collect="always" />
    <linearGradient
       gradientTransform="translate(0,-1004.3622)"
       y2="1014.3622"
       x2="24"
       y1="1046.3622"
       x1="24"
       gradientUnits="userSpaceOnUse"
       id="linearGradient3858"
       xlink:href="#linearGradient3810"
       inkscape:collect="always" />
    <linearGradient
       gradientUnits="userSpaceOnUse"
       y2="28.5625"
       x2="46.004719"
       y1="28.5625"
       x1="1.9952808"
       id="linearGradient3867"
       xlink:href="#linearGradient3855"
       inkscape:collect="always" />
    <linearGradient
       gradientUnits="userSpaceOnUse"
       y2="5"
       x2="38"
       y1="8"
       x1="35"
       id="linearGradient3921"
       xlink:href="#linearGradient3915"
       inkscape:collect="always" />
    <linearGradient
       gradientTransform="matrix(1.0436562,0,0,1.2222222,26.301501,1003.2511)"
       y2="5"
       x2="38"
       y1="8"
       x1="35"
       gradientUnits="userSpaceOnUse"
       id="linearGradient3933"
       xlink:href="#linearGradient3915"
       inkscape:collect="always" />
    <linearGradient
       gradientTransform="translate(22,1004.3622)"
       gradientUnits="userSpaceOnUse"
       y2="5"
       x2="44"
       y1="11"
       x1="35"
       id="linearGradient3954"
       xlink:href="#linearGradient3915"
       inkscape:collect="always" />
    <linearGradient
       gradientUnits="userSpaceOnUse"
       y2="24"
       x2="20"
       y1="14"
       x1="21"
       id="linearGradient3829"
       xlink:href="#linearGradient3823"
       inkscape:collect="always" />
    <linearGradient
       y2="26"
       x2="20"
       y1="14"
       x1="21"
       gradientUnits="userSpaceOnUse"
       id="linearGradient3839"
       xlink:href="#linearGradient3833"
       inkscape:collect="always" />
    <linearGradient
       gradientUnits="userSpaceOnUse"
       y2="30"
       x2="20"
       y1="15"
       x1="22"
       id="linearGradient3862"
       xlink:href="#linearGradient3855"
       inkscape:collect="always" />
  </defs>
  <path
     style="color:#000000;font-style:normal;font-variant:normal;font-weight:normal;font-stretch:normal;font-size:medium;line-height:normal;font-family:sans-serif;text-indent:0;text-align:start;text-decoration:none;text-decoration-line:none;text-decoration-style:solid;text-decoration-color:#000000;letter-spacing:normal;word-spacing:normal;text-transform:none;direction:ltr;block-progression:tb;writing-mode:lr-tb;baseline-shift:baseline;text-anchor:start;white-space:normal;clip-rule:nonzero;display:inline;overflow:visible;visibility:visible;opacity:1;isolation:auto;mix-blend-mode:normal;color-interpolation:sRGB;color-interpolation-filters:linearRGB;solid-color:#000000;solid-opacity:1;fill:url(#radialGradient4341);fill-opacity:1;fill-rule:nonzero;stroke:none;stroke-width:2;stroke-linecap:butt;stroke-linejoin:miter;stroke-miterlimit:4;stroke-dasharray:none;stroke-dashoffset:0;stroke-opacity:1;color-rendering:auto;image-rendering:auto;shape-rendering:auto;text-rendering:auto;enable-background:accumulate"
     d="M 6.5175781 7 C 5.6255551 7 4.7828951 7.2652919 4.2988281 7.9042969 C 4.0406961 8.2450519 3.999695 8.6232495 4 9 C 4.0033 9.6629806 4.0019531 10.33409 4.0019531 11 L 4.0019531 16 C 4.0019531 16.08869 4.0198038 16.172722 4.0273438 16.259766 C 3.4164286 16.601298 3 17.247641 3 18 L 3 39 C 3 40.108 3.892 41 5 41 L 43 41 C 44.108 41 45 40.108 45 39 L 45 18 C 45 17.250155 44.586056 16.606134 43.978516 16.263672 C 43.986316 16.175382 44.003906 16.089974 44.003906 16 L 44.003906 12 C 44.003906 11.163333 43.616788 10.455792 43.103516 9.9277344 C 42.590243 9.3996754 41.91768 9 41.097656 9 L 15.714844 9 C 15.641614 8.631062 15.674144 8.2450519 15.416016 7.9042969 C 14.931949 7.2652919 14.087336 7 13.195312 7 L 6.5175781 7 z M 6.8125 9 L 6.8203125 9 L 13.195312 9 C 13.775289 9 13.797082 9.0780801 13.822266 9.1113281 C 13.847446 9.1445781 13.954355 9.4433816 13.978516 10.041016 L 14.017578 11 L 41.097656 11 C 41.173636 11 41.452242 11.100324 41.667969 11.322266 C 41.883696 11.544207 42.003906 11.836667 42.003906 12 L 42.003906 16 L 6.0019531 16 L 6.0019531 11 L 6.0019531 10.759766 L 6.03125 10.041016 C 6.05541 9.4433816 6.162317 9.1445721 6.1875 9.1113281 C 6.21268 9.0780881 6.23252 9 6.8125 9 z M 26.1875 20.65625 C 27.77994 20.65625 29.09375 21.8639 29.09375 23.375 C 29.075758 23.9036 29.060588 24.493 28.71875 25.9375 C 28.655725 26.1265 28.534783 26.31895 28.375 26.53125 C 28.231508 26.72185 28.042784 26.9266 27.875 27.125 C 27.83846 27.4873 27.84013 27.85625 27.875 28.21875 C 28.339781 28.59845 29.190928 28.96085 29.96875 29.28125 C 30.369235 29.44625 30.740312 29.59955 31.03125 29.78125 C 31.176719 29.87205 31.30729 29.947 31.40625 30.0625 C 31.49894 30.1706 31.5532 30.31835 31.5625 30.46875 C 31.563131 30.47875 31.562443 30.49 31.5625 30.5 L 31.9375 33.15625 L 31.9375 33.1875 C 31.9375 33.5167 31.718157 33.786 31.40625 34 C 31.094343 34.2141 30.670986 34.38185 30.15625 34.53125 C 29.126779 34.83005 27.730307 35 26.1875 35 C 24.644694 35 23.248221 34.83005 22.21875 34.53125 C 21.704015 34.38185 21.280658 34.2141 20.96875 34 C 20.656843 33.786 20.4375 33.5167 20.4375 33.1875 L 20.4375 33.15625 L 20.78125 30.5 C 20.78118 30.485 20.81156 30.48375 20.8125 30.46875 C 20.832014 30.15395 21.033885 29.90305 21.3125 29.71875 C 21.604535 29.52555 21.974651 29.37815 22.375 29.21875 C 23.143211 28.91285 23.995898 28.57785 24.46875 28.21875 C 24.52996 27.79735 24.52175 27.4546 24.46875 27.0625 C 24.296265 26.8765 24.109561 26.676 23.96875 26.5 C 23.811424 26.3035 23.71742 26.121 23.65625 25.9375 L 23.625 25.9375 C 23.32183 24.5503 23.29301 23.8935 23.28125 23.375 C 23.28125 21.8639 24.595062 20.65625 26.1875 20.65625 z M 20.78125 21.15625 L 20.78125 21.158203 C 21.374019 21.158203 21.926441 21.387203 22.34375 21.720703 L 22.46875 21.783203 L 22.40625 21.908203 C 22.33072 22.139403 22.28125 22.384903 22.28125 22.595703 C 22.292628 23.097203 22.325448 23.662503 22.625 25.033203 C 22.66935 25.166303 22.66037 25.284253 22.6875 25.439453 L 22.71875 25.501953 L 22.6875 25.564453 C 22.607108 25.754353 22.425789 26.087303 22.1875 26.408203 C 22.1864 26.418203 22.1886 26.4275 22.1875 26.4375 C 22.15535 26.745 22.1572 27.0665 22.1875 27.375 C 22.343603 27.4974 22.533275 27.6296 22.78125 27.75 L 23.125 27.90625 L 22.78125 28.09375 C 22.153722 28.42005 21.369006 28.6692 20.75 28.9375 C 20.440497 29.0716 20.175219 29.20785 20 29.34375 C 19.82478 29.47955 19.749518 29.61005 19.75 29.71875 L 19.40625 32.375 C 19.40625 32.385 19.406701 32.39625 19.40625 32.40625 C 19.40303 32.47585 19.39828 32.557 19.375 32.625 C 19.36173 32.664 19.34331 32.707 19.3125 32.75 C 19.2971 32.771 19.25492 32.7895 19.21875 32.8125 C 19.18954 32.8305 19.14175 32.84385 19.09375 32.84375 L 19.0625 32.84375 C 18.179406 32.75265 17.449557 32.5978 16.9375 32.375 C 16.677879 32.2621 16.465496 32.12185 16.3125 31.96875 C 16.1595 31.81565 16.0625 31.6405 16.0625 31.4375 L 16.0625 31.40625 L 16.375 29.25 C 16.37493 29.235 16.40515 29.23375 16.40625 29.21875 C 16.425359 28.96425 16.58631 28.74275 16.8125 28.59375 C 17.051841 28.43605 17.3283 28.3171 17.65625 28.1875 C 18.288901 27.9374 18.988683 27.6714 19.375 27.375 C 19.4224 27.038 19.41697 26.72045 19.375 26.40625 C 19.236304 26.25645 19.083486 26.0804 18.96875 25.9375 C 18.837696 25.7741 18.73818 25.6521 18.6875 25.5 L 18.6875 25.46875 C 18.43873 24.33045 18.41585 23.83115 18.40625 23.40625 C 18.40625 22.16625 19.473278 21.15625 20.78125 21.15625 z "
     id="path12" />
  <g
     transform="translate(-17.867137,10.83326)"
     id="g3417" />
  <path
     style="color:#000000;font-style:normal;font-variant:normal;font-weight:normal;font-stretch:normal;font-size:medium;line-height:normal;font-family:sans-serif;text-indent:0;text-align:start;text-decoration:none;text-decoration-line:none;text-decoration-style:solid;text-decoration-color:#000000;letter-spacing:normal;word-spacing:normal;text-transform:none;direction:ltr;block-progression:tb;writing-mode:lr-tb;baseline-shift:baseline;text-anchor:start;white-space:normal;clip-rule:nonzero;display:inline;overflow:visible;visibility:visible;opacity:1;isolation:auto;mix-blend-mode:normal;color-interpolation:sRGB;color-interpolation-filters:linearRGB;solid-color:#000000;solid-opacity:1;fill:#ffffff;fill-opacity:0.09673204;fill-rule:nonzero;stroke:none;stroke-width:2;stroke-linecap:butt;stroke-linejoin:miter;stroke-miterlimit:4;stroke-dasharray:none;stroke-dashoffset:0;stroke-opacity:1;color-rendering:auto;image-rendering:auto;shape-rendering:auto;text-rendering:auto;enable-background:accumulate"
     d="M 6.5175781 7 C 5.6255551 7 4.7828951 7.2652919 4.2988281 7.9042969 C 4.0406961 8.2450519 3.999695 8.62325 4 9 C 4.0033 9.662981 4.0019531 10.33409 4.0019531 11 L 4.0019531 13.136719 L 6.0859375 9.5605469 C 6.1260326 9.3095345 6.1712675 9.1327566 6.1875 9.1113281 C 6.2025877 9.0914109 6.2616255 9.06083 6.3945312 9.0351562 L 7.5800781 7 L 6.5175781 7 z M 10.390625 7 L 11.556641 9 L 13.195312 9 C 13.77529 9 13.797082 9.0780801 13.822266 9.1113281 C 13.847446 9.1445781 13.954355 9.4433812 13.978516 10.041016 L 14.017578 11 L 15.501953 11 L 16.667969 9 L 15.714844 9 C 15.641614 8.631062 15.674144 8.2450519 15.416016 7.9042969 C 14.931949 7.2652919 14.087336 7 13.195312 7 L 10.390625 7 z M 21.810547 9 L 22.978516 11 L 25.755859 11 L 26.921875 9 L 21.810547 9 z M 32.064453 9 L 33.232422 11 L 36.009766 11 L 37.175781 9 L 32.064453 9 z M 42.619141 9.5175781 L 43.988281 11.863281 C 43.947582 11.08815 43.587622 10.425787 43.103516 9.9277344 C 42.956275 9.7762521 42.792319 9.6415261 42.619141 9.5175781 z M 4.0019531 13.380859 L 4.0019531 13.625 L 8.984375 22.169922 L 12.583984 16 L 6.0019531 16 L 6.0019531 13.380859 L 4.0019531 13.380859 z M 8.984375 22.169922 L 14.113281 30.957031 L 18.417969 23.576172 C 18.416279 23.526272 18.407318 23.453529 18.40625 23.40625 C 18.40625 22.949287 18.552307 22.525378 18.800781 22.169922 L 8.984375 22.169922 z M 8.984375 22.169922 L 3 22.169922 L 3 29.484375 L 3.859375 30.957031 L 8.984375 22.169922 z M 3.859375 30.957031 L 8.984375 39.746094 L 14.113281 30.957031 L 3.859375 30.957031 z M 3.859375 30.957031 L 3 30.957031 L 3 32.429688 L 3.859375 30.957031 z M 14.113281 30.957031 L 19.238281 39.746094 L 22.273438 34.544922 C 22.256398 34.540102 22.235594 34.536139 22.21875 34.53125 C 21.704015 34.38185 21.280658 34.2141 20.96875 34 C 20.656843 33.786 20.4375 33.5167 20.4375 33.1875 L 20.4375 33.15625 L 20.722656 30.957031 L 19.589844 30.957031 L 19.40625 32.375 C 19.40625 32.385 19.406701 32.39625 19.40625 32.40625 C 19.40303 32.47585 19.39828 32.557 19.375 32.625 C 19.36173 32.664 19.34331 32.707 19.3125 32.75 C 19.2971 32.771 19.25492 32.7895 19.21875 32.8125 C 19.18954 32.8305 19.14175 32.84385 19.09375 32.84375 L 19.0625 32.84375 C 18.179406 32.75265 17.449557 32.5978 16.9375 32.375 C 16.677879 32.2621 16.465496 32.12185 16.3125 31.96875 C 16.1595 31.81565 16.0625 31.6405 16.0625 31.4375 L 16.0625 31.40625 L 16.126953 30.957031 L 14.113281 30.957031 z M 19.238281 39.746094 L 19.970703 41 L 28.761719 41 L 29.492188 39.746094 L 19.238281 39.746094 z M 19.238281 39.746094 L 8.984375 39.746094 L 9.7167969 41 L 18.507812 41 L 19.238281 39.746094 z M 8.984375 39.746094 L 3.1464844 39.746094 C 3.441552 40.481366 4.1567823 41 5 41 L 8.2539062 41 L 8.984375 39.746094 z M 29.492188 39.746094 L 34.621094 30.957031 L 31.626953 30.957031 L 31.9375 33.15625 L 31.9375 33.1875 C 31.9375 33.5167 31.718157 33.786 31.40625 34 C 31.094343 34.2141 30.670986 34.38185 30.15625 34.53125 C 29.247663 34.794964 28.045426 34.949659 26.716797 34.984375 L 29.492188 39.746094 z M 29.492188 39.746094 L 30.224609 41 L 39.015625 41 L 39.746094 39.746094 L 29.492188 39.746094 z M 39.746094 39.746094 L 44.873047 30.957031 L 34.621094 30.957031 L 39.746094 39.746094 z M 39.746094 39.746094 L 40.478516 41 L 43 41 C 43.843218 41 44.558448 40.481366 44.853516 39.746094 L 39.746094 39.746094 z M 34.621094 30.957031 L 39.746094 22.169922 L 29.492188 22.169922 L 34.621094 30.957031 z M 29.492188 22.169922 L 28.779297 22.169922 C 28.906084 22.407597 28.9992 22.661834 29.046875 22.933594 L 29.492188 22.169922 z M 29.492188 22.169922 L 33.091797 16 L 25.894531 16 L 29.492188 22.169922 z M 39.746094 22.169922 L 44.003906 14.867188 L 44.003906 13.380859 L 42.003906 13.380859 L 42.003906 16 L 36.148438 16 L 39.746094 22.169922 z M 39.746094 22.169922 L 44.875 30.957031 L 45 30.742188 L 45 22.169922 L 39.746094 22.169922 z M 44.875 30.957031 L 44.873047 30.957031 L 45 31.173828 L 45 30.957031 L 44.875 30.957031 z M 15.640625 16 L 19.060547 21.865234 C 19.23632 21.689194 19.44269 21.544961 19.669922 21.429688 L 22.837891 16 L 15.640625 16 z M 22.337891 22.169922 C 22.30469 22.317483 22.28125 22.463369 22.28125 22.595703 C 22.292628 23.097203 22.325448 23.662503 22.625 25.033203 C 22.66935 25.166303 22.66037 25.284253 22.6875 25.439453 L 22.71875 25.501953 L 22.6875 25.564453 C 22.607108 25.754353 22.425789 26.087303 22.1875 26.408203 C 22.1864 26.418203 22.1886 26.4275 22.1875 26.4375 C 22.160574 26.695031 22.16999 26.961346 22.1875 27.222656 L 22.328125 27.464844 C 22.460362 27.560779 22.5922 27.65821 22.78125 27.75 L 23.125 27.90625 L 22.78125 28.09375 C 22.760276 28.104656 22.734204 28.11231 22.712891 28.123047 L 23.162109 28.892578 C 23.671839 28.677931 24.156547 28.455848 24.46875 28.21875 C 24.52996 27.79735 24.52175 27.4546 24.46875 27.0625 C 24.296265 26.8765 24.109561 26.676 23.96875 26.5 C 23.811424 26.3035 23.71742 26.121 23.65625 25.9375 L 23.625 25.9375 C 23.32183 24.5503 23.29301 23.8935 23.28125 23.375 C 23.28125 22.938689 23.401559 22.533865 23.595703 22.169922 L 22.337891 22.169922 z "
     id="path12-3" />
</svg>
