<?xml version="1.0" encoding="UTF-8" standalone="no"?>
<svg
   xmlns:dc="http://purl.org/dc/elements/1.1/"
   xmlns:cc="http://creativecommons.org/ns#"
   xmlns:rdf="http://www.w3.org/1999/02/22-rdf-syntax-ns#"
   xmlns:svg="http://www.w3.org/2000/svg"
   xmlns="http://www.w3.org/2000/svg"
   xmlns:xlink="http://www.w3.org/1999/xlink"
   xmlns:sodipodi="http://sodipodi.sourceforge.net/DTD/sodipodi-0.dtd"
   xmlns:inkscape="http://www.inkscape.org/namespaces/inkscape"
   viewBox="0 0 48 48"
   id="svg2"
   version="1.1"
   inkscape:version="0.91 r"
   sodipodi:docname="network.svg">
  <metadata
     id="metadata24">
    <rdf:RDF>
      <cc:Work
         rdf:about="">
        <dc:format>image/svg+xml</dc:format>
        <dc:type
           rdf:resource="http://purl.org/dc/dcmitype/StillImage" />
        <dc:title></dc:title>
      </cc:Work>
    </rdf:RDF>
  </metadata>
  <sodipodi:namedview
     pagecolor="#ffffff"
     bordercolor="#666666"
     borderopacity="1"
     objecttolerance="10"
     gridtolerance="10"
     guidetolerance="10"
     inkscape:pageopacity="0"
     inkscape:pageshadow="2"
     inkscape:window-width="1920"
     inkscape:window-height="1056"
     id="namedview22"
     showgrid="true"
     inkscape:zoom="8.0000004"
     inkscape:cx="-3.9910454"
     inkscape:cy="40.983262"
     inkscape:window-x="0"
     inkscape:window-y="24"
     inkscape:window-maximized="1"
     inkscape:current-layer="svg2">
    <inkscape:grid
       type="xygrid"
       id="grid4327" />
  </sodipodi:namedview>
  <defs
     id="defs4">
    <radialGradient
       id="thisWeirdIdNameFixesABug0"
       cx="24"
       cy="24"
       r="23.437"
       gradientUnits="userSpaceOnUse">
      <stop
         offset="0"
         stop-color="#f5c14e"
         id="stop7" />
      <stop
         offset="1"
         stop-color="#d5a12e"
         id="stop9"
         style="stop-color:#d5a12e;stop-opacity:1" />
    </radialGradient>
    <radialGradient
       inkscape:collect="always"
       xlink:href="#thisWeirdIdNameFixesABug0"
       id="radialGradient4341"
       cx="24"
       cy="24"
       fx="24"
       fy="24"
       r="21"
       gradientTransform="matrix(1.1428571,9.7278905e-8,-9.7278904e-8,1.1428571,-3.4285691,-3.4285737)"
       gradientUnits="userSpaceOnUse" />
    <linearGradient
       id="linearGradient3855">
      <stop
         id="stop3857"
         offset="0"
         style="stop-color:#000000;stop-opacity:1;" />
      <stop
         id="stop3859"
         offset="1"
         style="stop-color:#000000;stop-opacity:0.29411766;" />
    </linearGradient>
    <linearGradient
       id="linearGradient3833">
      <stop
         style="stop-color:#fdfeff;stop-opacity:1;"
         offset="0"
         id="stop3835" />
      <stop
         style="stop-color:#dfe4e4;stop-opacity:1;"
         offset="1"
         id="stop3837" />
    </linearGradient>
    <linearGradient
       id="linearGradient3823">
      <stop
         id="stop3825"
         offset="0"
         style="stop-color:#49b7ef;stop-opacity:1;" />
      <stop
         id="stop3827"
         offset="1"
         style="stop-color:#1d8de2;stop-opacity:1;" />
    </linearGradient>
    <linearGradient
       id="linearGradient3956">
      <stop
         id="stop3958"
         offset="0"
         style="stop-color:#f8f4e1;stop-opacity:1;" />
      <stop
         id="stop3960"
         offset="1"
         style="stop-color:#eae5c8;stop-opacity:1;" />
    </linearGradient>
    <linearGradient
       id="linearGradient3915">
      <stop
         id="stop3917"
         offset="0"
         style="stop-color:#f8f4e1;stop-opacity:1;" />
      <stop
         id="stop3919"
         offset="1"
         style="stop-color:#ad9e57;stop-opacity:1;" />
    </linearGradient>
    <linearGradient
       id="linearGradient3810">
      <stop
         id="stop3812"
         offset="0"
         style="stop-color:#f2c66f;stop-opacity:1;" />
      <stop
         id="stop3814"
         offset="1"
         style="stop-color:#fbd68f;stop-opacity:1;" />
    </linearGradient>
    <linearGradient
       gradientUnits="userSpaceOnUse"
       y2="1014.3622"
       x2="24"
       y1="1046.3622"
       x1="24"
       id="linearGradient3816"
       xlink:href="#linearGradient3810"
       inkscape:collect="always" />
    <linearGradient
       gradientTransform="translate(0,-3)"
       y2="1014.3622"
       x2="24"
       y1="1046.3622"
       x1="24"
       gradientUnits="userSpaceOnUse"
       id="linearGradient3856"
       xlink:href="#linearGradient3810"
       inkscape:collect="always" />
    <linearGradient
       gradientTransform="translate(0,-1004.3622)"
       y2="1014.3622"
       x2="24"
       y1="1046.3622"
       x1="24"
       gradientUnits="userSpaceOnUse"
       id="linearGradient3858"
       xlink:href="#linearGradient3810"
       inkscape:collect="always" />
    <linearGradient
       gradientUnits="userSpaceOnUse"
       y2="28.5625"
       x2="46.004719"
       y1="28.5625"
       x1="1.9952808"
       id="linearGradient3867"
       xlink:href="#linearGradient3855"
       inkscape:collect="always" />
    <linearGradient
       gradientUnits="userSpaceOnUse"
       y2="5"
       x2="38"
       y1="8"
       x1="35"
       id="linearGradient3921"
       xlink:href="#linearGradient3915"
       inkscape:collect="always" />
    <linearGradient
       gradientTransform="matrix(1.0436562,0,0,1.2222222,26.301501,1003.2511)"
       y2="5"
       x2="38"
       y1="8"
       x1="35"
       gradientUnits="userSpaceOnUse"
       id="linearGradient3933"
       xlink:href="#linearGradient3915"
       inkscape:collect="always" />
    <linearGradient
       gradientTransform="translate(22,1004.3622)"
       gradientUnits="userSpaceOnUse"
       y2="5"
       x2="44"
       y1="11"
       x1="35"
       id="linearGradient3954"
       xlink:href="#linearGradient3915"
       inkscape:collect="always" />
    <linearGradient
       gradientUnits="userSpaceOnUse"
       y2="24"
       x2="20"
       y1="14"
       x1="21"
       id="linearGradient3829"
       xlink:href="#linearGradient3823"
       inkscape:collect="always" />
    <linearGradient
       y2="26"
       x2="20"
       y1="14"
       x1="21"
       gradientUnits="userSpaceOnUse"
       id="linearGradient3839"
       xlink:href="#linearGradient3833"
       inkscape:collect="always" />
    <linearGradient
       gradientUnits="userSpaceOnUse"
       y2="30"
       x2="20"
       y1="15"
       x1="22"
       id="linearGradient3862"
       xlink:href="#linearGradient3855"
       inkscape:collect="always" />
  </defs>
  <path
     style="color:#000000;font-style:normal;font-variant:normal;font-weight:normal;font-stretch:normal;font-size:medium;line-height:normal;font-family:sans-serif;text-indent:0;text-align:start;text-decoration:none;text-decoration-line:none;text-decoration-style:solid;text-decoration-color:#000000;letter-spacing:normal;word-spacing:normal;text-transform:none;direction:ltr;block-progression:tb;writing-mode:lr-tb;baseline-shift:baseline;text-anchor:start;white-space:normal;clip-rule:nonzero;display:inline;overflow:visible;visibility:visible;opacity:1;isolation:auto;mix-blend-mode:normal;color-interpolation:sRGB;color-interpolation-filters:linearRGB;solid-color:#000000;solid-opacity:1;fill:url(#radialGradient4341);fill-opacity:1;fill-rule:nonzero;stroke:none;stroke-width:2;stroke-linecap:butt;stroke-linejoin:miter;stroke-miterlimit:4;stroke-dasharray:none;stroke-dashoffset:0;stroke-opacity:1;color-rendering:auto;image-rendering:auto;shape-rendering:auto;text-rendering:auto;enable-background:accumulate"
     d="M 6.5175781 7 C 5.6255551 7 4.7828951 7.2652919 4.2988281 7.9042969 C 4.0406961 8.2450519 3.999695 8.6232495 4 9 C 4.0033 9.6629806 4.0019531 10.33409 4.0019531 11 L 4.0019531 16 C 4.0019531 16.08869 4.0198038 16.172722 4.0273438 16.259766 C 3.4164286 16.601298 3 17.247641 3 18 L 3 39 C 3 40.108 3.892 41 5 41 L 43 41 C 44.108 41 45 40.108 45 39 L 45 18 C 45 17.250155 44.586056 16.606134 43.978516 16.263672 C 43.986316 16.175382 44.003906 16.089974 44.003906 16 L 44.003906 12 C 44.003906 11.163333 43.616788 10.455792 43.103516 9.9277344 C 42.590243 9.3996754 41.91768 9 41.097656 9 L 15.714844 9 C 15.641614 8.631062 15.674144 8.2450519 15.416016 7.9042969 C 14.931949 7.2652919 14.087336 7 13.195312 7 L 6.5175781 7 z M 6.8125 9 L 6.8203125 9 L 13.195312 9 C 13.775289 9 13.797082 9.0780801 13.822266 9.1113281 C 13.847446 9.1445781 13.954355 9.4433816 13.978516 10.041016 L 14.017578 11 L 41.097656 11 C 41.173636 11 41.452242 11.100324 41.667969 11.322266 C 41.883696 11.544207 42.003906 11.836667 42.003906 12 L 42.003906 16 L 6.0019531 16 L 6.0019531 11 L 6.0019531 10.759766 L 6.03125 10.041016 C 6.05541 9.4433816 6.162317 9.1445721 6.1875 9.1113281 C 6.21268 9.0780881 6.23252 9 6.8125 9 z M 23 20 L 24 20 C 28.41199 20 32 23.5881 32 28 C 32 32.4118 28.411697 36 23 36 C 19.587729 36 16 32.4118 16 28 C 16 23.5881 19.587724 20 23 20 z M 24.650391 21.125 C 24.645891 21.16 24.654391 21.160219 24.650391 21.199219 C 24.578962 21.877819 24.217079 21.428 24.074219 21.5 C 23.931362 21.5715 22.974609 22.8929 22.974609 22.75 C 22.974609 22.6071 23.150391 22.400391 23.150391 22.400391 C 23.150391 22.400391 23.213246 21.795037 23.099609 21.148438 C 22.789023 21.188738 22.472076 21.244219 22.175781 21.324219 L 21.25 22.849609 C 21.329853 22.861609 21.422267 22.890219 21.525391 22.949219 C 22.025392 23.235019 22.232141 23.488437 22.375 23.523438 C 22.517859 23.559537 23.163507 22.658947 22.699219 23.623047 C 22.234933 24.587447 22.010325 24.908647 21.474609 25.123047 C 21.441129 25.133047 21.40809 25.134391 21.375 25.150391 C 21.238114 25.314491 21.055713 25.493219 20.824219 25.699219 C 20.319144 26.149619 20.074219 26.200491 20.074219 26.650391 C 20.074219 27.100491 20.078162 27.448728 19.724609 28.048828 C 19.371058 28.648828 19.123866 28.649409 19.275391 29.099609 C 19.426918 29.549609 19.52793 30.35 19.275391 30 C 19.022851 29.6501 19.127813 28.950009 18.925781 29.349609 C 18.749004 29.699809 18.332561 29.839619 18.300781 30.199219 C 18.296281 30.248519 18.288101 30.286609 18.300781 30.349609 C 18.303311 30.359609 18.320819 30.359 18.324219 30.375 C 18.453857 30.8078 19.175781 30.209181 19.175781 30.550781 C 19.175781 30.900581 18.547693 30.899119 18.699219 31.199219 C 18.850742 31.499019 19.420706 30.6006 19.925781 30.75 C 20.430852 30.9 20.11965 30.999119 20.574219 31.199219 C 21.028786 31.399319 21.275391 31.600391 21.275391 31.900391 C 21.275391 32.200491 22.702307 32.050581 22.550781 32.550781 C 22.399259 33.050781 22.25535 32.9501 21.800781 33.5 C 21.550365 33.8031 21.346106 33.9789 21.199219 34.125 C 21.405133 34.2757 21.434711 34.355391 21.675781 34.275391 C 21.997203 34.168391 21.599606 34.0178 21.849609 33.875 C 21.912107 33.839 21.937779 33.806391 21.974609 33.775391 C 22.011439 33.745391 22.04911 33.724172 22.125 33.701172 C 22.276787 33.656172 22.578961 33.625 23.275391 33.625 C 24.668246 33.625 25.349609 33.701172 25.349609 33.701172 C 25.349609 33.701172 25.803574 33.675281 25.375 33.925781 C 25.061814 34.108181 24.429529 34.438391 24.349609 34.525391 C 24.380993 34.522391 24.445031 34.523 24.525391 34.5 C 25.168248 34.3213 26.050781 34.171609 26.300781 34.099609 C 26.40671 34.069509 26.967947 33.782119 27.425781 33.574219 C 27.444451 33.530919 27.455789 33.492219 27.474609 33.449219 L 27.449219 33.449219 C 27.095665 33.297919 26.799368 32.602391 26.900391 32.400391 C 27.001405 32.198391 27.24746 32.030491 27.5 31.525391 C 27.752539 31.020091 27.707107 31.383609 27 30.474609 C 26.292894 29.565309 25.927774 30.527509 25.574219 30.224609 C 25.220666 29.921509 24.478826 29.655209 24.175781 29.099609 C 23.87273 28.543809 24.025391 28.955809 24.025391 28.349609 C 24.025391 27.742609 23.973475 28.204719 24.125 27.699219 C 24.276522 27.194519 24.670704 27.129091 25.175781 26.775391 C 25.245227 26.725291 25.329781 26.708828 25.400391 26.673828 C 25.28723 26.566328 25.139688 26.338938 24.824219 26.023438 C 24.824219 26.023438 25.122461 25.374637 25.375 25.273438 C 25.62011 25.176738 25.767735 25.231172 26.099609 25.326172 C 26.113699 25.271972 26.1096 25.2487 26.125 25.125 C 26.175504 24.721 25.974609 24.953572 25.974609 24.701172 C 25.974609 24.448572 26.095667 24.700809 26.449219 24.599609 C 26.802775 24.498609 26.796837 23.799191 27.150391 23.900391 C 27.503944 24.001491 27.497735 23.755281 27.800781 23.300781 C 28.103828 22.845481 27.804454 23.102391 27.400391 22.900391 C 26.99633 22.698291 27.351024 23.195528 27.25 23.548828 C 27.148986 23.902328 26.853553 23.706719 26.5 22.949219 C 26.14645 22.191619 26.44836 22.4809 26.650391 21.875 C 26.685748 21.7686 26.724831 21.713391 26.775391 21.650391 C 26.118547 21.364591 25.396066 21.194 24.650391 21.125 z M 26 23.824219 L 26 23.826172 C 26.153891 23.849772 26.273849 24.001544 26.349609 24.152344 C 26.390009 24.234544 26.347651 24.258344 26.300781 24.277344 C 26.300781 24.277344 26.375 24.451953 26.375 24.501953 C 26.375 24.551953 26.265301 24.539562 26.025391 24.476562 C 25.845468 24.429963 25.977676 24.390781 26.099609 24.300781 L 25.875 24.300781 C 25.786609 24.300781 25.745899 24.291391 25.724609 24.275391 C 25.738049 24.286391 25.72815 24.274781 25.75 24.300781 C 25.863641 24.439781 25.738369 24.339953 25.574219 24.376953 C 25.410077 24.414853 25.574641 24.290091 25.650391 24.150391 C 25.650391 24.150391 25.705829 24.194562 25.724609 24.226562 C 25.756169 24.157062 25.824219 24.028363 25.824219 23.851562 C 25.887346 23.825463 25.94871 23.808219 26 23.824219 z M 29.824219 24.248047 C 29.571773 24.435347 29.240285 24.8592 28.974609 25.125 C 28.520041 25.5789 29.22207 25.622828 29.474609 25.673828 C 29.727148 25.724828 29.969531 25.574219 30.474609 25.574219 C 30.465659 25.550219 30.458519 25.524 30.449219 25.5 C 30.38088 25.508 30.307409 25.525391 30.224609 25.525391 C 29.928453 25.525391 30.106241 25.253009 30.175781 24.849609 C 30.07036 24.643109 29.949136 24.4441 29.824219 24.25 L 29.824219 24.248047 z M 26.675781 25.173828 C 26.569304 25.141528 26.417179 25.262147 26.224609 25.373047 C 26.361335 25.572447 25.94558 26.125438 25.724609 26.523438 C 25.715749 26.533438 25.707419 26.532828 25.699219 26.548828 C 26.13236 26.476428 26.789864 26.597009 28.300781 26.974609 C 28.300781 26.974609 28.873588 26.821638 28.974609 27.023438 C 29.010497 27.093738 29.194626 27.134391 29.425781 27.150391 C 30.036316 26.909791 29.724609 26.711509 29.724609 26.224609 C 29.724609 25.719609 28.973196 26.277791 29.074219 26.025391 C 29.175236 25.772891 28.953163 25.777328 28.599609 25.423828 C 28.246055 25.070228 28.303318 26.326519 28.050781 26.074219 C 27.79824 25.824119 27.800241 26.026219 27.699219 25.824219 C 27.598205 25.622119 27.25 25.273438 27.25 25.273438 C 27.25 25.273437 27.499729 25.568919 27.449219 26.074219 C 27.398711 26.579019 26.699219 26.125 26.699219 26.125 C 26.699219 26.125 26.797968 26.075391 27 26.025391 C 27.20203 25.974791 26.952307 25.677919 26.800781 25.324219 C 26.762913 25.238119 26.722331 25.190781 26.675781 25.175781 L 26.675781 25.173828 z M 30.925781 27.699219 C 30.869652 27.740219 30.794069 27.774781 30.724609 27.800781 C 30.169024 28.002881 29.775391 28.449219 29.775391 28.449219 C 29.775391 28.449219 30.420589 28.445309 30.875 28.849609 C 30.90796 28.574409 30.925781 28.2843 30.925781 28 C 30.925781 27.8974 30.930281 27.800319 30.925781 27.699219 z "
     id="path12" />
  <g
     transform="translate(-17.867137,10.83326)"
     id="g3417" />
  <path
     style="color:#000000;font-style:normal;font-variant:normal;font-weight:normal;font-stretch:normal;font-size:medium;line-height:normal;font-family:sans-serif;text-indent:0;text-align:start;text-decoration:none;text-decoration-line:none;text-decoration-style:solid;text-decoration-color:#000000;letter-spacing:normal;word-spacing:normal;text-transform:none;direction:ltr;block-progression:tb;writing-mode:lr-tb;baseline-shift:baseline;text-anchor:start;white-space:normal;clip-rule:nonzero;display:inline;overflow:visible;visibility:visible;opacity:1;isolation:auto;mix-blend-mode:normal;color-interpolation:sRGB;color-interpolation-filters:linearRGB;solid-color:#000000;solid-opacity:1;fill:#ffffff;fill-opacity:0.09673204;fill-rule:nonzero;stroke:none;stroke-width:2;stroke-linecap:butt;stroke-linejoin:miter;stroke-miterlimit:4;stroke-dasharray:none;stroke-dashoffset:0;stroke-opacity:1;color-rendering:auto;image-rendering:auto;shape-rendering:auto;text-rendering:auto;enable-background:accumulate"
     d="M 6.5175781 7 C 5.6255551 7 4.7828951 7.2652919 4.2988281 7.9042969 C 4.0406961 8.2450519 3.999695 8.62325 4 9 C 4.0033 9.662981 4.0019531 10.33409 4.0019531 11 L 4.0019531 13.136719 L 6.0859375 9.5605469 C 6.1260326 9.3095345 6.1712675 9.1327566 6.1875 9.1113281 C 6.2025877 9.0914109 6.2616255 9.06083 6.3945312 9.0351562 L 7.5800781 7 L 6.5175781 7 z M 10.390625 7 L 11.556641 9 L 13.195312 9 C 13.77529 9 13.797082 9.0780801 13.822266 9.1113281 C 13.847446 9.1445781 13.954355 9.4433812 13.978516 10.041016 L 14.017578 11 L 15.501953 11 L 16.667969 9 L 15.714844 9 C 15.641614 8.631062 15.674144 8.2450519 15.416016 7.9042969 C 14.931949 7.2652919 14.087336 7 13.195312 7 L 10.390625 7 z M 21.810547 9 L 22.978516 11 L 25.755859 11 L 26.921875 9 L 21.810547 9 z M 32.064453 9 L 33.232422 11 L 36.009766 11 L 37.175781 9 L 32.064453 9 z M 42.619141 9.5175781 L 43.988281 11.863281 C 43.947582 11.08815 43.587622 10.425787 43.103516 9.9277344 C 42.956275 9.7762521 42.792319 9.6415261 42.619141 9.5175781 z M 4.0019531 13.380859 L 4.0019531 13.625 L 8.984375 22.169922 L 12.583984 16 L 6.0019531 16 L 6.0019531 13.380859 L 4.0019531 13.380859 z M 8.984375 22.169922 L 14.113281 30.957031 L 16.015625 27.695312 C 16.097956 25.518335 17.043114 23.565149 18.396484 22.169922 L 8.984375 22.169922 z M 8.984375 22.169922 L 3 22.169922 L 3 29.484375 L 3.859375 30.957031 L 8.984375 22.169922 z M 3.859375 30.957031 L 8.984375 39.746094 L 14.113281 30.957031 L 3.859375 30.957031 z M 3.859375 30.957031 L 3 30.957031 L 3 32.429688 L 3.859375 30.957031 z M 14.113281 30.957031 L 19.238281 39.746094 L 21.550781 35.785156 C 19.44658 35.187505 17.48354 33.359509 16.558594 30.957031 L 14.113281 30.957031 z M 19.238281 39.746094 L 19.970703 41 L 28.761719 41 L 29.492188 39.746094 L 19.238281 39.746094 z M 19.238281 39.746094 L 8.984375 39.746094 L 9.7167969 41 L 18.507812 41 L 19.238281 39.746094 z M 8.984375 39.746094 L 3.1464844 39.746094 C 3.441552 40.481366 4.1567823 41 5 41 L 8.2539062 41 L 8.984375 39.746094 z M 29.492188 39.746094 L 34.621094 30.957031 L 31.414062 30.957031 C 30.61795 32.880018 29.037958 34.433649 26.890625 35.285156 L 29.492188 39.746094 z M 29.492188 39.746094 L 30.224609 41 L 39.015625 41 L 39.746094 39.746094 L 29.492188 39.746094 z M 39.746094 39.746094 L 44.873047 30.957031 L 34.621094 30.957031 L 39.746094 39.746094 z M 39.746094 39.746094 L 40.478516 41 L 43 41 C 43.843218 41 44.558448 40.481366 44.853516 39.746094 L 39.746094 39.746094 z M 34.621094 30.957031 L 39.746094 22.169922 L 29.492188 22.169922 L 29.527344 22.230469 C 30.591527 23.250425 31.371704 24.559003 31.746094 26.03125 L 34.621094 30.957031 z M 29.492188 22.169922 L 29.460938 22.169922 C 29.467675 22.176237 29.475706 22.181162 29.482422 22.1875 L 29.492188 22.169922 z M 29.492188 22.169922 L 33.091797 16 L 25.894531 16 L 29.492188 22.169922 z M 39.746094 22.169922 L 44.003906 14.867188 L 44.003906 13.380859 L 42.003906 13.380859 L 42.003906 16 L 36.148438 16 L 39.746094 22.169922 z M 39.746094 22.169922 L 44.875 30.957031 L 45 30.742188 L 45 22.169922 L 39.746094 22.169922 z M 44.875 30.957031 L 44.873047 30.957031 L 45 31.173828 L 45 30.957031 L 44.875 30.957031 z M 15.640625 16 L 18.939453 21.658203 C 19.269833 21.374617 19.616042 21.120944 19.976562 20.904297 L 22.837891 16 L 15.640625 16 z M 21.662109 22.169922 L 21.25 22.849609 C 21.329853 22.861609 21.422267 22.890219 21.525391 22.949219 C 22.025392 23.235019 22.232141 23.488437 22.375 23.523438 C 22.517859 23.559537 23.163507 22.658947 22.699219 23.623047 C 22.234933 24.587447 22.010325 24.908647 21.474609 25.123047 C 21.441129 25.133047 21.40809 25.134391 21.375 25.150391 C 21.312514 25.2253 21.204665 25.31794 21.123047 25.400391 L 24.367188 30.957031 L 25.009766 29.855469 C 24.686988 29.658499 24.359733 29.436866 24.175781 29.099609 C 23.87273 28.543809 24.025391 28.955809 24.025391 28.349609 C 24.025391 27.742609 23.973475 28.204719 24.125 27.699219 C 24.276522 27.194519 24.670704 27.129091 25.175781 26.775391 C 25.245227 26.725291 25.329781 26.708828 25.400391 26.673828 C 25.28723 26.566328 25.139688 26.338938 24.824219 26.023438 C 24.824219 26.023438 25.122461 25.374637 25.375 25.273438 C 25.62011 25.176738 25.767735 25.231172 26.099609 25.326172 C 26.113699 25.271972 26.1096 25.2487 26.125 25.125 C 26.175504 24.721 25.974609 24.953572 25.974609 24.701172 C 25.974609 24.448572 26.095667 24.700809 26.449219 24.599609 C 26.802775 24.498609 26.796837 23.799191 27.150391 23.900391 C 27.503944 24.001491 27.497735 23.755281 27.800781 23.300781 C 28.103828 22.845481 27.804454 23.102391 27.400391 22.900391 C 26.99633 22.698291 27.351024 23.195528 27.25 23.548828 C 27.148986 23.902328 26.853553 23.706719 26.5 22.949219 C 26.228727 22.367924 26.344716 22.395965 26.503906 22.169922 L 23.5 22.169922 C 23.228896 22.509102 22.974609 22.824973 22.974609 22.75 C 22.974609 22.6071 23.150391 22.400391 23.150391 22.400391 C 23.150391 22.400391 23.155197 22.263978 23.160156 22.169922 L 21.662109 22.169922 z M 24.367188 30.957031 L 26.210938 34.119141 C 26.226681 34.115116 26.288152 34.103247 26.300781 34.099609 C 26.40671 34.069509 26.967947 33.782119 27.425781 33.574219 C 27.444451 33.530919 27.455789 33.492219 27.474609 33.449219 L 27.449219 33.449219 C 27.095665 33.297919 26.799368 32.602391 26.900391 32.400391 C 27.001405 32.198391 27.24746 32.030491 27.5 31.525391 C 27.687538 31.150149 27.708023 31.250761 27.417969 30.957031 L 24.367188 30.957031 z M 24.367188 30.957031 L 20.269531 30.957031 C 20.312076 31.025794 20.346934 31.099169 20.574219 31.199219 C 21.028786 31.399319 21.275391 31.600391 21.275391 31.900391 C 21.275391 32.200491 22.702307 32.050581 22.550781 32.550781 C 22.399259 33.050781 22.25535 32.9501 21.800781 33.5 C 21.550365 33.8031 21.346106 33.9789 21.199219 34.125 C 21.405133 34.2757 21.434711 34.355391 21.675781 34.275391 C 21.997203 34.168391 21.599606 34.0178 21.849609 33.875 C 21.912107 33.839 21.937779 33.806391 21.974609 33.775391 C 22.011439 33.745391 22.04911 33.724172 22.125 33.701172 C 22.230755 33.669819 22.468608 33.650683 22.802734 33.638672 L 24.367188 30.957031 z M 26 23.824219 L 26 23.826172 C 26.153891 23.849772 26.273849 24.001544 26.349609 24.152344 C 26.390009 24.234544 26.347651 24.258344 26.300781 24.277344 C 26.300781 24.277344 26.375 24.451953 26.375 24.501953 C 26.375 24.551953 26.265301 24.539562 26.025391 24.476562 C 25.845468 24.429963 25.977676 24.390781 26.099609 24.300781 L 25.875 24.300781 C 25.786609 24.300781 25.745899 24.291391 25.724609 24.275391 C 25.738049 24.286391 25.72815 24.274781 25.75 24.300781 C 25.863641 24.439781 25.738369 24.339953 25.574219 24.376953 C 25.410077 24.414853 25.574641 24.290091 25.650391 24.150391 C 25.650391 24.150391 25.705829 24.194562 25.724609 24.226562 C 25.756169 24.157062 25.824219 24.028363 25.824219 23.851562 C 25.887346 23.825463 25.94871 23.808219 26 23.824219 z M 26.675781 25.173828 C 26.569304 25.141528 26.417179 25.262147 26.224609 25.373047 C 26.361335 25.572447 25.94558 26.125438 25.724609 26.523438 C 25.715749 26.533438 25.707419 26.532828 25.699219 26.548828 C 25.951267 26.506698 26.347496 26.555318 26.875 26.65625 L 27.089844 26.289062 C 26.896704 26.244746 26.699219 26.125 26.699219 26.125 C 26.699219 26.125 26.797968 26.075391 27 26.025391 C 27.20203 25.974791 26.952307 25.677919 26.800781 25.324219 C 26.762913 25.238119 26.722331 25.190781 26.675781 25.175781 L 26.675781 25.173828 z M 27.25 25.273438 C 27.25 25.273437 27.375643 25.431752 27.429688 25.705078 L 27.509766 25.570312 C 27.380591 25.415074 27.25 25.273438 27.25 25.273438 z M 18.796875 30.957031 C 18.708258 31.019638 18.642152 31.086198 18.699219 31.199219 C 18.787066 31.373031 19.020409 31.151278 19.294922 30.957031 L 18.796875 30.957031 z "
     id="path12-3" />
</svg>
